# xmcd
#
# Track frame offsets:
#	150
#	17171
#	30296
#	43496
#	65547
#	79648
#	106648
#	126973
#	139649
#	156074
#	172799
#	197400
#	209400
#
# Disc length: 3008 seconds
# Revision: 0
# Processed by: cddbd v1.5.2PL0 Copyright (c) Steve Scherf et al.
# Submitted via: dBpowerAMP V12.0
#
DISCID=a10bbe0d
DTITLE=Arthur Migliazza - Laying It Down
DYEAR=2014
DGENRE=Blues Piano
TTITLE0=Overture
TTITLE1=I'm Ready
TTITLE2=Rockin' Pneumonia and The Boogie Woogie Flu
TTITLE3=Boogie Woogie Stomp
TTITLE4=Love You Mama
TTITLE5=Sing Sing Sing - Bumble Boogie
TTITLE6=Bourbon Street Parade
TTITLE7=Thank You Blues
TTITLE8=Honky Tonk Train Blues
TTITLE9=Suitcase Blues
TTITLE10=St. Louis Blues
TTITLE11=Professor Calling Me
TTITLE12=The Boogie Rocks
EXTD=
EXTT0=
EXTT1=
EXTT2=
EXTT3=
EXTT4=
EXTT5=
EXTT6=
EXTT7=
EXTT8=
EXTT9=
EXTT10=
EXTT11=
EXTT12=
PLAYORDER=
